<!DOCTYPE svg PUBLIC "-//W3C//DTD SVG 1.1//EN" "http://www.w3.org/Graphics/SVG/1.1/DTD/svg11.dtd">
<!-- Uploaded to: SVG Repo, www.svgrepo.com, Transformed by: SVG Repo Mixer Tools -->
<svg width="800px" height="800px" viewBox="-6.4 -6.4 76.80 76.80" xmlns="http://www.w3.org/2000/svg" xmlns:xlink="http://www.w3.org/1999/xlink" aria-hidden="true" role="img" class="iconify iconify--medical-icon" preserveAspectRatio="xMidYMid meet" fill="#8400ff" stroke="#8400ff">
<g id="SVGRepo_bgCarrier" stroke-width="0" transform="translate(8.64,8.64), scale(0.73)">
<rect x="-6.4" y="-6.4" width="76.80" height="76.80" rx="0" fill="#ffffff" strokewidth="0"/>
</g>
<g id="SVGRepo_tracerCarrier" stroke-linecap="round" stroke-linejoin="round"/>
<g id="SVGRepo_iconCarrier">
<path d="M53.71 26.872c0-3.16-2.561-5.477-5.721-5.477c-.144 0-.287.007-.429.015v10.981c.142.01.285.017.429.017c3.16 0 5.721-2.377 5.721-5.537z" fill="#ffffff"/>
<path d="M56.347.73H7.989A7.359 7.359 0 0 0 .63 8.089v48.358a7.36 7.36 0 0 0 7.359 7.359h48.358a7.359 7.359 0 0 0 7.359-7.359V8.089A7.359 7.359 0 0 0 56.347.73zM17.893 17.837l29.668.007c.142-.006.285-.01.429-.01c5.214 0 9.44 3.823 9.439 9.037c0 5.212-4.226 9.136-9.44 9.136c-.143 0-.286-.005-.428-.011v1.392a5.297 5.297 0 0 1-5.296 5.296H23.189a5.297 5.297 0 0 1-5.296-5.296V17.836zM58.472 44.01a5.297 5.297 0 0 1-5.296 5.296H11.971a5.297 5.297 0 0 1-5.296-5.296v-.184h51.796v.184z" fill="#ffffff"/>
</g>
</svg>